<?xml version="1.0" encoding="UTF-8"?>
<svg version="1.1" viewBox="0 0 1772 1414" width="1772" height="1414" xmlns="http://www.w3.org/2000/svg">
<path transform="translate(0)" d="m0 0h1772v1414h-1772z" fill="#152F40"/>
<path transform="translate(465,377)" d="m0 0 5 3 13 11 18 13 19 12 21 12 23 12 35 15 37 13 30 9 43 11 16 6 17 9 14 11 24 24 11 9 12 10 20 13 23 12 15 5 5 1-4-13-6-10-9-10-8-7-8-10-6-12-3-13v-14l3-13 8-16 11-12 10-8 11-5 11-3h19l16 5 12 7 10 9 8 11 5 12 2 9v20l-4 14-7 13-10 11-8 7-7 9-5 11-2 8 17-5 19-9 19-12 14-10 14-12 13-12 16-16 15-11 16-8 21-7 36-9 26-8 32-11 34-14 33-16 18-10 25-16 17-13 11-9 3-3h2l-1 9-7 21-12 23-10 13-10 11-15 11-17 8-22 8-35 10-42 10-58 12-16 5-14 6-14 9-13 11-11 11-8 7-26 26-7 8-14 15-9 11-9 10-13 17-3 5v7l4 8 12 13 9 10 8 13 4 11 2 11v8l-3 14-6 12-10 13-7 7-15 11-22 12 10-3h13l12 6 7 6 7 11 4 10v14l-6 12-7 8-11 8-17 8-10 4 10-3h12l10 5 7 7 4 9v12l-4 8-8 9-14 9-11 5-11 4h12l6 3 6 8v7l-3 3-7-7-14-8-2-1 1 20v43l-5 3-6-1-2-2v-47l1-16-13 7-10 9-3-3v-7l4-6 9-7 10-6-7 1h-8l-8-3-11-7-8-8-5-10v-12l5-10 6-7 14-8 13-6 2-1-7 1h-12l-10-3-9-7-6-8-4-9v-14l4-10 7-11 11-11 15-11 19-10-14 4-12 1-10-3-8-6-9-10-8-13-4-12-1-7v-8l3-15 8-16 8-10 15-16 5-9v-7l-6-9-13-16-12-14-11-12-7-8-9-9-7-8-23-23-8-7-7-7-13-10-15-9-19-7-21-5-53-11-38-9-36-11-21-8-17-9-10-8-10-10-11-15-9-17-7-19-3-11z" fill="#82C0E7"/>
<path transform="translate(876,442)" d="m0 0h19l16 5 12 7 10 9 8 11 5 12 2 9v20l-4 14-7 13-10 11-8 7-7 9-5 9-2 5v6l11-2 7-1 1 3h2l5 12v28l-9 15-5 6-11 7-11 4-10 1-11-2-10-3-6-3v-2l-6-3v-2l-3-1-8-14-2-8v-18l2-9 5-9 3-3 14 4h3l-2-9-7-14-10-11-8-7-8-10-6-12-3-13v-14l3-13 8-16 11-12 10-8 11-5z" fill="#82C0E7"/>
<path transform="translate(1193,590)" d="m0 0h2l7 23 6 27 3 22 1 13v42l-3 28-6 29-7 24-9 24-11 24-11 19-14 21-10 13-11 13-9 10-16 16-11 9-12 10-19 13-18 11-21 11-29 12-31 9-18 4-27 4h-13v-13l1-1 32-4 27-6 36-12 20-9 19-10 22-14 19-14 14-12 23-23 9-11 13-17 10-15 9-16 9-17 10-25 8-25 6-28 3-21 1-12v-39l-3-29-6-29-5-18 1-5z" fill="#82C0E7"/>
<path transform="translate(577,590)" d="m0 0 11 7-1 7-6 23-4 20-3 27v42l3 27 5 26 7 24 8 22 9 20 12 22 14 21 10 13 11 13 12 13 16 15 14 11 18 13 15 9 16 9 19 9 25 9 24 7 25 5 27 3 1 1v13h-13l-32-5-28-7-26-9-25-11-22-12-19-12-17-13-11-9-10-9-22-22-9-11-10-13-14-21-10-17-14-29-10-28-7-26-4-21-3-27v-46l3-27 6-29 7-24z" fill="#82C0E7"/>
<path transform="translate(507,481)" d="m0 0 6 2 17 8 30 10 52 13 57 11 28 5 19 7 15 9 10 8 7 7 8 7 9 9 8 7 10 10h-3l-16-9-12-6-22-8-25-6-25-4-67-8-22-4-20-6-16-7-14-9-13-11-11-14-8-14z" fill="#82C0E7"/>
<path transform="translate(1261,481)" d="m0 0 3 1-4 10-7 11-8 10-11 11-13 9-16 8-20 7-21 4-31 4-50 6-31 6-20 6-20 8-20 11-5 3 2-4 10-9 8-8 8-7 8-8 8-7 10-8 14-8 19-7 49-9 45-9 36-9 36-12 12-5z" fill="#82C0E7"/>
<path transform="translate(877,369)" d="m0 0h17l30 2 24 4 25 6 23 7 24 10 17 8 19 11 18 12 12 9 11 9 11 10 3 2v3l-11 3-5-1-11-9-15-12-20-13-17-10-23-11-23-9-28-8-26-5-29-3h-35l-28 3-31 6-29 9-29 12-21 11-24 15-18 14-13 11-8-1-8-3 5-6 8-7 12-10 18-13 19-12 27-14 16-7 16-6 28-8 30-6 18-2z" fill="#82C0E7"/>
<path transform="translate(880,567)" d="m0 0h10l11 3 6 4-2 9v6l11-2 7-1 1 3h2l5 12v28l-9 15-5 6-11 7-11 4-10 1-11-2-10-3-6-3v-2l-6-3v-2l-3-1-8-14-2-8v-18l2-9 5-9 3-3 14 4h3l-2-9v-7l8-4z" fill="#C9E5F4"/>
<path transform="translate(567,562)" d="m0 0 7 1 22 6 28 4 67 6 32 5 22 6 19 7 17 8 18 11 13 11 14 14 9 11 8 9-1 2-21-14-18-10-21-10-27-9-21-5-18-3-20-2-33-2-21-3-21-6-14-6-14-8-12-9-10-9z" fill="#82C0E7"/>
<path transform="translate(1200,562)" d="m0 0h3l-2 4-7 7-13 10-14 8-15 7-16 5-20 4-24 2-27 2-22 3-28 6-29 10-23 11-20 12-13 9-2-1 9-11 16-17 12-12 13-9 16-9 20-9 22-7 23-5 30-4 58-5 27-4 20-5z" fill="#82C0E7"/>
<path transform="translate(998,1088)" d="m0 0 9 1 8 6 8 10 8 17 3 11 1 7v8l-3 9-5 4-2 1h-8l-6-3-6-5-9-14-7-17-2-11v-10l2-7 4-5z" fill="#152F40"/>
<path transform="translate(577,590)" d="m0 0 11 7-1 7-6 23-4 20-3 27v42l3 27 2 12-1 10-7-1-6-3-3-15-3-27v-46l3-27 6-29 7-24z" fill="#82C0E7"/>
<path transform="translate(737,1075)" d="m0 0 16 4 8 3-1 4-6-1-3 10-6 23 10 2 19 5 4-16 3-10v-6l-4-2v-4l7 1 17 5 1 4-7 1-6 19-13 45-1 7 5 1v4l-8-1-17-5v-4l7-1 9-30v-3l-24-7h-4l-8 28-1 6 5 1v4l-8-1-17-5v-4h6l3-6 17-59v-6l-4-2z" fill="#82C0E7"/>
<path transform="translate(388,620)" d="m0 0 3 1 2 6 26 2 35 2h11l2-6 4 1-1 24-4 1-2-6-6-1-26-1-2 30h33l2-5h3v18l-1 7h-4l-1-5-2-1-65-4-6 1-2 5-4-1 1-20 1-5 4 1 1 5 3 1 32 2 1-29-3-1-17-1h-14l-3 6h-3v-14l1-12z" fill="#82C0E7"/>
<path transform="translate(1009,269)" d="m0 0h8l6 3 5 6 2 4v18l-5 16-6 9-8 7-2 1h-11l-7-4-4-8-1-4v-10l4-16 6-12 5-5 5-4z" fill="#82C0E7"/>
<path transform="translate(1e3 1083)" d="m0 0h15l10 5 5 4 7 10 5 12 3 14v12l-4 13-9 10-9 4-4 1h-10l-10-4-8-7-7-10-5-15-2-11v-10l2-9 6-10 6-5zm-2 5-6 3-4 6-1 5v10l3 14 8 18 9 12 7 5 3 1h8l6-4 3-5 1-5v-8l-3-15-7-16-7-11-9-8-5-2z" fill="#82C0E7"/>
<path transform="translate(1132,1021)" d="m0 0 4 1-2 4-1 5 14 22 25 40-1 4-6-1-28-14-19-10-19-9 13 21 15 24 3 5 3 1 5-1v4l-12 8h-4l1-4 2-2-1-5-30-48-6-9h-8l1-4 12-7 6 2 28 14 19 10 8 4-6-11-14-22-6-9v-2l-8 1v-4z" fill="#82C0E7"/>
<path transform="translate(511,875)" d="m0 0 4 1 1 4-17 17-7 8-15 15-7 8-8 8-1 7 1 4-4 1-11-20v-4h4l1 2 4-2 9-9 1-4-9-17v-2l-16 4-3 1v6h-4l-7-13v-4l4 1 2 3h9z" fill="#82C0E7"/>
<path transform="translate(1218,938)" d="m0 0 3 1-2 5 1 4 13 12 8 7 11 10 8 7 11 10 5 5-2 3-14-2-64-12 7 7 8 7 12 11 8 7 10 8 8-2-1 5-9 10-4-1 2-4-1-4-8-8-8-7-11-10-8-7-10-9-7-5-7 2-1-3 7-8 3-3 11 1 52 10h4l-13-12-8-7-12-11-4-3-5 1h-4l1-4z" fill="#82C0E7"/>
<path transform="translate(868,689)" d="m0 0h2l5 77v6l-10-5-13-11-6-7-4-8-1-4v-12l4-11 10-13 7-7z" fill="#152F40"/>
<path transform="translate(901,689)" d="m0 0 4 2 12 11 8 11 4 8 1 4v12l-4 10-7 9-9 8-13 8h-1l2-40z" fill="#152F40"/>
<path transform="translate(1269,851)" d="m0 0 14 2 1 5-13 1-6 9-4 8 1 3 26 13 3-3 2-4v-5l-4-3v-3l6 1 12 6 1 4h-9l-4 7 1 4 29 14 3 1 2-6 7-14v-6l-6-5v-5l5 1 8 6 1 5-21 42-4 1v-7l-8-5-24-12-23-11-8-4h-3l-3 4-3-1 1-5 18-36z" fill="#82C0E7"/>
<path transform="translate(469,747)" d="m0 0 4 1 9 40v5l-9 6-6 1-1-3 3-3 5-3 1-2v-9l-3-13-25 5-7 1 3 13h8v4l-19 4-2-3 5-3 2-1-1-9-1-3-20 4-13 3h-3l5 23 4 4 9 1 1 4-1 1h-15l-3-9-8-36v-6l4 1 2 4 9-1 59-13 4-1z" fill="#82C0E7"/>
<path transform="translate(1299,743)" d="m0 0h10l14 2v4l-14 3-6 4-4 5v10l4 6 9 6 12 5 14 3h21l10-4 4-6 1-8-3-8-9-8-9-5v-4l6 1 10 6 7 8 3 7v11l-4 10-4 5-9 6-13 3h-11l-15-3-12-5-8-6-6-7-3-8v-14l5-13-1-5z" fill="#82C0E7"/>
<path transform="translate(881,1100)" d="m0 0h13l11 2v-2l4 1 2 23-3 2-7-14-5-5-7-3-6 1-6 4-5 10-3 14v20l3 14 5 9 6 4h10l7-4 6-9 4-13 4 1-1 9-4 9-6 8-7 4-4 1h-9l-10-3-6-4-6-8-4-9-2-11v-16l3-13 5-10 5-6 10-5z" fill="#82C0E7"/>
<path transform="translate(639,1024)" d="m0 0 7 1 22 14 17 11-1 8-3 7h-4v-13l-7-6-4-1-14 22-15 24-8 12-1 6 3 1v4l-5-1-17-11v-4l7 1 7-10 15-24 12-19 4-6v-4l-10-5-7 3-2 2h-5l1-4z" fill="#82C0E7"/>
<path transform="translate(1312,624)" d="m0 0 5 1-1 4-8 4-2 3v12l71-5 3-1 2-6 3 1 2 21-1 4h-3l-2-5-6-1-57 4-10 1v10l3 5 9 3v4l-3 1-12-3-2-7-2-29v-16l5-3z" fill="#82C0E7"/>
<path transform="translate(744,401)" d="m0 0 2 1-5 3h-2l4 4 4 2 9-1v2l-19 9-20 12-12 8-17 13-13 11-8-1-8-3 5-6 8-7 12-10 18-13 19-12z" fill="#82C0E7"/>
<path transform="translate(561,951)" d="m0 0 4 1 12 12 3 4-1 3-4-2-5 1-15 14-7 7-8 7-9 9-8 7-3 3 1 4 13 14 2 1h6l7-3 2 4-12 8-4-2-7-7-7-8-9-9-7-8-2-2 1-4 4 2 6-1 14-14 8-7 9-9 8-7 10-10-2-5z" fill="#82C0E7"/>
<path transform="translate(1193,590)" d="m0 0h2l7 23 6 27 3 22v13l-1 2-9-2-2-1v-5h-2l-5-32-6-26-3-10 1-5z" fill="#82C0E7"/>
<path transform="translate(979,993)" d="m0 0m-3 1h3l1 5 6 4 7-1 10-3v2l-24 8-27 7-33 5h-13v-13l1-1 32-4 27-6z" fill="#82C0E7"/>
<path transform="translate(876,813)" d="m0 0h1l1 15 1 38-9-3-13-7-7-8-1-3v-7l4-8 10-9z" fill="#152F40"/>
<path transform="translate(710,285)" d="m0 0h3l8 14v3l-4-1-7-6-5-2-7 1-3 3v7l5 5 10 4 17 5 8 6 3 6v8l-4 7-9 6-11 3-1 2-4-1-8-16v-3l4 1 4 5 6 4 9 1 5-2 2-8-3-6-9-4-19-5-8-5-4-5-1-3v-8l4-6 6-5 11-3z" fill="#82C0E7"/>
<path transform="translate(894,814)" d="m0 0 5 1 14 10 7 8 2 5v7l-4 7-7 6-17 8-2-1 1-34z" fill="#152F40"/>
<path transform="translate(639,323)" d="m0 0 4 1 7 6-1 3-4-1-3-2-7 1-9 6 2 5 10 15 5-2 3-1-2-7 4-1 7 10v4h-3l-2-3-5 2-3 3 11 16 3 4v2l6-3 10-7v-12l4 1 3 7-1 5-14 10-16 11-2-1 1-8-11-15-13-19-6-8h-6l2-4 20-14z" fill="#82C0E7"/>
<path transform="translate(1014,272)" d="m0 0 5 1 3 5v12l-4 16-7 16-7 8-7-1-2-3v-16l4-14 6-15 7-8z" fill="#152F40"/>
<path transform="translate(876,894)" d="m0 0 4 1v44l-5-1-12-6-10-9-2-5 1-8 4-5 11-7z" fill="#152F40"/>
<path transform="translate(892,894)" d="m0 0 5 1 14 7 6 5 3 6-1 8-7 8-14 8-4 2h-3v-38z" fill="#152F40"/>
<path transform="translate(789,260)" d="m0 0h6l5 9-1 3-4-2-3-4h-8l-3 2 13 51v2h5l1 3-18 5-2-1 1-3 2-1-1-10-11-43v-2l-9 3-2 3-1 7-4-1v-11l7-3z" fill="#82C0E7"/>
<path transform="translate(1138,331)" d="m0 0 8 2 6 5 1 2v10l-4 5-8 3-5-1 3 10-2 10-4 6-7 6-3 1h-9l-8-4-5-5-1-6 3-4h5l2 2-2 10 7 1 6-4 7-9 2-9-3-7-1-3 9-1 6-4 3-4-1-5-3-2h-6l-5 2v-4z" fill="#82C0E7"/>
<path transform="translate(1080,297)" d="m0 0 9 1 7 6 2 5-1 8-4 6-8 7-21 12-10 6-1 1 14 7h7l2-4 2-1 2 1-1 4-4 6-4 1-26-13 1-4 15-10 14-9 8-8 4-7-1-7-6-2-6 3-4 4h-3l1-4 9-8z" fill="#82C0E7"/>
<path transform="translate(937,254)" d="m0 0h11l6 4 3 6v7l-4 9-8 11-11 12-8 11 18 1 4-4 2-4h3l-1 9-2 4-12-1-16-2-4-2 4-7 11-13 9-14 4-11-1-8-5-2-5 2-5 8-1 2-3-1 3-9 6-7z" fill="#82C0E7"/>
<path transform="translate(560,716)" d="m0 0 7 1 5 3 6 39v6l-7-1-5-3-4-23z" fill="#CAE6F5"/>
<path transform="translate(1018,980)" d="m0 0h4v2l5 1 2 4-4 3-26 11-9 3-5-1-6-4v-4l34-13z" fill="#CAE6F5"/>
<path transform="translate(765,393)" d="m0 0 5 1 7 5-1 3-22 9-7 1-8-5v-2l6-3 3-3 7-3z" fill="#C7E4F4"/>
<path transform="translate(1196,641)" d="m0 0 10 4 2 5 2 17v10l-9-2-2-1-4-29z" fill="#CAE6F5"/>
<path transform="translate(491,884)" d="m0 0 3 1-15 16-8 8-3-3-7-13v-2z" fill="#152F40"/>
<path transform="translate(465,377)" d="m0 0 5 3 8 7 4 5-2 9-2 3-4 1-1-3h-2l-6-20z" fill="#BDDFF2"/>
<path transform="translate(1303,380)" d="m0 0h1l-1 8-6 17h-3l-3-3-3-9 8-9z" fill="#C6E4F4"/>
<path transform="translate(842,308)" d="m0 0 5 1 1 1v7l-6 2-4-4 1-5z" fill="#82C0E7"/>
</svg>
